<mxfile host="65bd71144e">
    <diagram id="kxzGbGIx9sgmkfija7Jn" name="PÃ¡gina-1">
        <mxGraphModel dx="1477" dy="383" grid="1" gridSize="10" guides="1" tooltips="1" connect="1" arrows="1" fold="1" page="1" pageScale="1" pageWidth="827" pageHeight="1169" math="0" shadow="0">
            <root>
                <mxCell id="0"/>
                <mxCell id="1" parent="0"/>
                <mxCell id="6" value="" style="edgeStyle=none;html=1;" parent="1" source="2" target="5" edge="1">
                    <mxGeometry relative="1" as="geometry"/>
                </mxCell>
                <mxCell id="2" value="Inicio" style="ellipse;whiteSpace=wrap;html=1;fillColor=#d80073;strokeColor=#A50040;fontColor=#ffffff;fontFamily=Comic Sans MS;fontSize=23;" parent="1" vertex="1">
                    <mxGeometry x="354" y="10" width="120" height="80" as="geometry"/>
                </mxCell>
                <mxCell id="8" value="" style="edgeStyle=none;html=1;" parent="1" source="5" target="7" edge="1">
                    <mxGeometry relative="1" as="geometry"/>
                </mxCell>
                <mxCell id="5" value="X,Y" style="shape=parallelogram;perimeter=parallelogramPerimeter;whiteSpace=wrap;html=1;fixedSize=1;fillColor=#60a917;fontColor=#ffffff;strokeColor=#2D7600;fontFamily=Comic Sans MS;fontSize=24;" parent="1" vertex="1">
                    <mxGeometry x="354" y="180" width="120" height="60" as="geometry"/>
                </mxCell>
                <mxCell id="10" value="" style="edgeStyle=none;html=1;" parent="1" source="7" target="9" edge="1">
                    <mxGeometry relative="1" as="geometry">
                        <Array as="points">
                            <mxPoint x="254" y="350"/>
                        </Array>
                    </mxGeometry>
                </mxCell>
                <mxCell id="12" value="" style="edgeStyle=none;html=1;" parent="1" source="7" target="11" edge="1">
                    <mxGeometry relative="1" as="geometry">
                        <Array as="points">
                            <mxPoint x="560" y="350"/>
                        </Array>
                    </mxGeometry>
                </mxCell>
                <mxCell id="7" value="X==0" style="rhombus;whiteSpace=wrap;html=1;fillColor=#0050ef;fontColor=#ffffff;strokeColor=#001DBC;fontFamily=Comic Sans MS;fontSize=17;" parent="1" vertex="1">
                    <mxGeometry x="374" y="310" width="80" height="80" as="geometry"/>
                </mxCell>
                <mxCell id="20" value="" style="edgeStyle=none;html=1;" parent="1" source="9" target="19" edge="1">
                    <mxGeometry relative="1" as="geometry">
                        <Array as="points">
                            <mxPoint x="344" y="430"/>
                        </Array>
                    </mxGeometry>
                </mxCell>
                <mxCell id="22" value="" style="edgeStyle=none;html=1;" parent="1" source="9" target="21" edge="1">
                    <mxGeometry relative="1" as="geometry">
                        <Array as="points">
                            <mxPoint x="40" y="430"/>
                        </Array>
                    </mxGeometry>
                </mxCell>
                <mxCell id="9" value="Y==0" style="rhombus;whiteSpace=wrap;html=1;fillColor=#0050ef;fontColor=#ffffff;strokeColor=#001DBC;fontFamily=Comic Sans MS;fontSize=23;" parent="1" vertex="1">
                    <mxGeometry x="200" y="380" width="104" height="100" as="geometry"/>
                </mxCell>
                <mxCell id="16" value="" style="edgeStyle=none;html=1;" parent="1" source="11" target="15" edge="1">
                    <mxGeometry relative="1" as="geometry">
                        <Array as="points">
                            <mxPoint x="474" y="430"/>
                        </Array>
                    </mxGeometry>
                </mxCell>
                <mxCell id="18" value="" style="edgeStyle=none;html=1;" parent="1" source="11" target="17" edge="1">
                    <mxGeometry relative="1" as="geometry">
                        <Array as="points">
                            <mxPoint x="660" y="430"/>
                        </Array>
                    </mxGeometry>
                </mxCell>
                <mxCell id="11" value="Y==0" style="rhombus;whiteSpace=wrap;html=1;fillColor=#0050ef;fontColor=#ffffff;strokeColor=#001DBC;fontSize=21;fontFamily=Comic Sans MS;" parent="1" vertex="1">
                    <mxGeometry x="510" y="380" width="100" height="100" as="geometry"/>
                </mxCell>
                <mxCell id="43" style="edgeStyle=none;html=1;entryX=0.5;entryY=0;entryDx=0;entryDy=0;" parent="1" source="15" target="36" edge="1">
                    <mxGeometry relative="1" as="geometry">
                        <Array as="points">
                            <mxPoint x="477" y="990"/>
                            <mxPoint x="414" y="990"/>
                        </Array>
                    </mxGeometry>
                </mxCell>
                <mxCell id="15" value="Eje Y" style="shape=document;whiteSpace=wrap;html=1;boundedLbl=1;fillColor=#60a917;fontColor=#ffffff;strokeColor=#2D7600;fontSize=17;fontFamily=Comic Sans MS;" parent="1" vertex="1">
                    <mxGeometry x="440" y="520" width="74" height="50" as="geometry"/>
                </mxCell>
                <mxCell id="44" style="edgeStyle=none;html=1;entryX=0.5;entryY=0;entryDx=0;entryDy=0;" parent="1" source="17" target="36" edge="1">
                    <mxGeometry relative="1" as="geometry">
                        <mxPoint x="410" y="990" as="targetPoint"/>
                        <Array as="points">
                            <mxPoint x="660" y="990"/>
                            <mxPoint x="414" y="990"/>
                        </Array>
                    </mxGeometry>
                </mxCell>
                <mxCell id="17" value="Origen" style="shape=document;whiteSpace=wrap;html=1;boundedLbl=1;fillColor=#60a917;fontColor=#ffffff;strokeColor=#2D7600;fontSize=18;fontFamily=Comic Sans MS;" parent="1" vertex="1">
                    <mxGeometry x="620" y="520" width="80" height="60" as="geometry"/>
                </mxCell>
                <mxCell id="42" style="edgeStyle=none;html=1;entryX=0.5;entryY=0;entryDx=0;entryDy=0;" parent="1" source="19" target="36" edge="1">
                    <mxGeometry relative="1" as="geometry">
                        <Array as="points">
                            <mxPoint x="344" y="990"/>
                            <mxPoint x="414" y="990"/>
                        </Array>
                    </mxGeometry>
                </mxCell>
                <mxCell id="19" value="Eje x" style="shape=document;whiteSpace=wrap;html=1;boundedLbl=1;fillColor=#60a917;fontColor=#ffffff;strokeColor=#2D7600;fontFamily=Comic Sans MS;fontSize=20;" parent="1" vertex="1">
                    <mxGeometry x="304" y="520" width="80" height="50" as="geometry"/>
                </mxCell>
                <mxCell id="24" value="" style="edgeStyle=none;html=1;" parent="1" source="21" target="23" edge="1">
                    <mxGeometry relative="1" as="geometry">
                        <Array as="points">
                            <mxPoint x="160" y="560"/>
                        </Array>
                    </mxGeometry>
                </mxCell>
                <mxCell id="26" value="" style="edgeStyle=none;html=1;" parent="1" source="21" target="25" edge="1">
                    <mxGeometry relative="1" as="geometry">
                        <Array as="points">
                            <mxPoint x="-130" y="560"/>
                        </Array>
                    </mxGeometry>
                </mxCell>
                <mxCell id="21" value="X&amp;gt;0" style="rhombus;whiteSpace=wrap;html=1;fillColor=#e3c800;fontColor=#000000;strokeColor=#B09500;fontFamily=Comic Sans MS;fontSize=19;" parent="1" vertex="1">
                    <mxGeometry y="520" width="80" height="80" as="geometry"/>
                </mxCell>
                <mxCell id="32" value="" style="edgeStyle=none;html=1;" parent="1" source="23" target="31" edge="1">
                    <mxGeometry relative="1" as="geometry">
                        <Array as="points">
                            <mxPoint x="75" y="640"/>
                        </Array>
                    </mxGeometry>
                </mxCell>
                <mxCell id="34" value="" style="edgeStyle=none;html=1;" parent="1" source="23" target="33" edge="1">
                    <mxGeometry relative="1" as="geometry">
                        <Array as="points">
                            <mxPoint x="240" y="640"/>
                        </Array>
                    </mxGeometry>
                </mxCell>
                <mxCell id="23" value="Y&amp;gt;0" style="rhombus;whiteSpace=wrap;html=1;fillColor=#e3c800;fontColor=#000000;strokeColor=#B09500;fontFamily=Comic Sans MS;fontSize=20;" parent="1" vertex="1">
                    <mxGeometry x="120" y="600" width="80" height="80" as="geometry"/>
                </mxCell>
                <mxCell id="28" value="" style="edgeStyle=none;html=1;" parent="1" source="25" target="27" edge="1">
                    <mxGeometry relative="1" as="geometry">
                        <Array as="points">
                            <mxPoint x="-230" y="640"/>
                        </Array>
                    </mxGeometry>
                </mxCell>
                <mxCell id="30" value="" style="edgeStyle=none;html=1;" parent="1" source="25" target="29" edge="1">
                    <mxGeometry relative="1" as="geometry">
                        <Array as="points">
                            <mxPoint x="-50" y="640"/>
                        </Array>
                    </mxGeometry>
                </mxCell>
                <mxCell id="25" value="Y&amp;lt;0" style="rhombus;whiteSpace=wrap;html=1;fillColor=#e3c800;fontColor=#000000;strokeColor=#B09500;fontFamily=Comic Sans MS;fontSize=22;" parent="1" vertex="1">
                    <mxGeometry x="-170" y="600" width="80" height="80" as="geometry"/>
                </mxCell>
                <mxCell id="41" style="edgeStyle=none;html=1;entryX=0.5;entryY=0;entryDx=0;entryDy=0;" parent="1" source="27" target="36" edge="1">
                    <mxGeometry relative="1" as="geometry">
                        <Array as="points">
                            <mxPoint x="-230" y="990"/>
                            <mxPoint x="414" y="990"/>
                        </Array>
                    </mxGeometry>
                </mxCell>
                <mxCell id="27" value="Segundo&lt;br style=&quot;font-size: 16px;&quot;&gt;Cuadrante" style="shape=document;whiteSpace=wrap;html=1;boundedLbl=1;fillColor=#60a917;fontColor=#ffffff;strokeColor=#2D7600;fontSize=16;fontFamily=Comic Sans MS;" parent="1" vertex="1">
                    <mxGeometry x="-280" y="710" width="100" height="60" as="geometry"/>
                </mxCell>
                <mxCell id="39" style="edgeStyle=none;html=1;entryX=0.5;entryY=0;entryDx=0;entryDy=0;" parent="1" source="29" target="36" edge="1">
                    <mxGeometry relative="1" as="geometry">
                        <Array as="points">
                            <mxPoint x="-50" y="990"/>
                            <mxPoint x="414" y="990"/>
                        </Array>
                    </mxGeometry>
                </mxCell>
                <mxCell id="29" value="Tercer&lt;br style=&quot;font-size: 15px;&quot;&gt;Cuadrante" style="shape=document;whiteSpace=wrap;html=1;boundedLbl=1;fillColor=#60a917;fontColor=#ffffff;strokeColor=#2D7600;fontSize=15;fontFamily=Comic Sans MS;" parent="1" vertex="1">
                    <mxGeometry x="-100" y="710" width="100" height="60" as="geometry"/>
                </mxCell>
                <mxCell id="40" style="edgeStyle=none;html=1;entryX=0.5;entryY=0;entryDx=0;entryDy=0;" parent="1" source="31" target="36" edge="1">
                    <mxGeometry relative="1" as="geometry">
                        <Array as="points">
                            <mxPoint x="75" y="990"/>
                            <mxPoint x="414" y="990"/>
                        </Array>
                    </mxGeometry>
                </mxCell>
                <mxCell id="31" value="Cuarto&lt;br style=&quot;font-size: 15px;&quot;&gt;Cuadrante" style="shape=document;whiteSpace=wrap;html=1;boundedLbl=1;fillColor=#60a917;fontColor=#ffffff;strokeColor=#2D7600;fontSize=15;fontFamily=Comic Sans MS;" parent="1" vertex="1">
                    <mxGeometry x="30" y="710" width="90" height="60" as="geometry"/>
                </mxCell>
                <mxCell id="37" style="edgeStyle=none;html=1;entryX=0.5;entryY=0;entryDx=0;entryDy=0;" parent="1" source="33" target="36" edge="1">
                    <mxGeometry relative="1" as="geometry">
                        <Array as="points">
                            <mxPoint x="240" y="990"/>
                            <mxPoint x="414" y="990"/>
                        </Array>
                    </mxGeometry>
                </mxCell>
                <mxCell id="33" value="Primer&amp;nbsp;&lt;br style=&quot;font-size: 15px;&quot;&gt;Cuadrante" style="shape=document;whiteSpace=wrap;html=1;boundedLbl=1;fillColor=#60a917;fontColor=#ffffff;strokeColor=#2D7600;fontSize=15;fontFamily=Comic Sans MS;" parent="1" vertex="1">
                    <mxGeometry x="200" y="710" width="80" height="60" as="geometry"/>
                </mxCell>
                <mxCell id="36" value="Fin" style="ellipse;whiteSpace=wrap;html=1;fillColor=#1ba1e2;fontColor=#ffffff;strokeColor=#006EAF;fontFamily=Comic Sans MS;fontSize=29;" parent="1" vertex="1">
                    <mxGeometry x="354" y="1040" width="120" height="80" as="geometry"/>
                </mxCell>
                <mxCell id="47" value="Falso" style="text;html=1;strokeColor=none;fillColor=none;align=center;verticalAlign=middle;whiteSpace=wrap;rounded=0;fontFamily=Comic Sans MS;fontSize=20;fontColor=#F00000;" parent="1" vertex="1">
                    <mxGeometry x="244" y="320" width="60" height="30" as="geometry"/>
                </mxCell>
                <mxCell id="48" value="Falso" style="text;html=1;strokeColor=none;fillColor=none;align=center;verticalAlign=middle;whiteSpace=wrap;rounded=0;fontFamily=Comic Sans MS;fontSize=20;fontColor=#F00000;" parent="1" vertex="1">
                    <mxGeometry x="40" y="400" width="60" height="30" as="geometry"/>
                </mxCell>
                <mxCell id="49" value="Falso" style="text;html=1;strokeColor=none;fillColor=none;align=center;verticalAlign=middle;whiteSpace=wrap;rounded=0;fontFamily=Comic Sans MS;fontSize=20;fontColor=#F00000;" parent="1" vertex="1">
                    <mxGeometry x="-130" y="530" width="60" height="30" as="geometry"/>
                </mxCell>
                <mxCell id="52" value="Falso" style="text;html=1;strokeColor=none;fillColor=none;align=center;verticalAlign=middle;whiteSpace=wrap;rounded=0;fontFamily=Comic Sans MS;fontSize=20;fontColor=#F00000;" parent="1" vertex="1">
                    <mxGeometry x="-240" y="610" width="60" height="30" as="geometry"/>
                </mxCell>
                <mxCell id="53" value="True" style="text;html=1;strokeColor=none;fillColor=none;align=center;verticalAlign=middle;whiteSpace=wrap;rounded=0;fontFamily=Comic Sans MS;fontSize=20;fontColor=#38F00A;" parent="1" vertex="1">
                    <mxGeometry x="510" y="320" width="60" height="30" as="geometry"/>
                </mxCell>
                <mxCell id="54" value="True" style="text;html=1;strokeColor=none;fillColor=none;align=center;verticalAlign=middle;whiteSpace=wrap;rounded=0;fontFamily=Comic Sans MS;fontSize=20;fontColor=#38F00A;" parent="1" vertex="1">
                    <mxGeometry x="610" y="400" width="60" height="30" as="geometry"/>
                </mxCell>
                <mxCell id="55" value="True" style="text;html=1;strokeColor=none;fillColor=none;align=center;verticalAlign=middle;whiteSpace=wrap;rounded=0;fontFamily=Comic Sans MS;fontSize=20;fontColor=#38F00A;" parent="1" vertex="1">
                    <mxGeometry x="294" y="400" width="60" height="30" as="geometry"/>
                </mxCell>
                <mxCell id="56" value="True" style="text;html=1;strokeColor=none;fillColor=none;align=center;verticalAlign=middle;whiteSpace=wrap;rounded=0;fontFamily=Comic Sans MS;fontSize=20;fontColor=#38F00A;" parent="1" vertex="1">
                    <mxGeometry x="100" y="530" width="60" height="30" as="geometry"/>
                </mxCell>
                <mxCell id="57" value="True" style="text;html=1;strokeColor=none;fillColor=none;align=center;verticalAlign=middle;whiteSpace=wrap;rounded=0;fontFamily=Comic Sans MS;fontSize=20;fontColor=#38F00A;" parent="1" vertex="1">
                    <mxGeometry x="190" y="610" width="60" height="30" as="geometry"/>
                </mxCell>
                <mxCell id="58" value="True" style="text;html=1;strokeColor=none;fillColor=none;align=center;verticalAlign=middle;whiteSpace=wrap;rounded=0;fontFamily=Comic Sans MS;fontSize=20;fontColor=#38F00A;" parent="1" vertex="1">
                    <mxGeometry x="-100" y="610" width="60" height="30" as="geometry"/>
                </mxCell>
                <mxCell id="60" value="Falso" style="text;html=1;strokeColor=none;fillColor=none;align=center;verticalAlign=middle;whiteSpace=wrap;rounded=0;fontFamily=Comic Sans MS;fontSize=20;fontColor=#F00000;" parent="1" vertex="1">
                    <mxGeometry x="70" y="610" width="60" height="30" as="geometry"/>
                </mxCell>
                <mxCell id="61" value="Falso" style="text;html=1;strokeColor=none;fillColor=none;align=center;verticalAlign=middle;whiteSpace=wrap;rounded=0;fontFamily=Comic Sans MS;fontSize=20;fontColor=#F00000;" parent="1" vertex="1">
                    <mxGeometry x="454" y="400" width="60" height="30" as="geometry"/>
                </mxCell>
            </root>
        </mxGraphModel>
    </diagram>
</mxfile>